<svg width="1200" height="900" viewBox="0 0 1200 900" fill="none" xmlns="http://www.w3.org/2000/svg">
  <rect width="1200" height="900" rx="64" fill="#F6F0E6"/>
  <rect x="96" y="92" width="1008" height="716" rx="46" fill="#102542"/>
  <rect x="174" y="160" width="400" height="580" rx="34" fill="#FFF9F0"/>
  <rect x="632" y="160" width="394" height="580" rx="34" fill="#173A63"/>
  <rect x="228" y="238" width="290" height="30" rx="15" fill="#D6E4F0"/>
  <rect x="228" y="314" width="232" height="30" rx="15" fill="#D6E4F0"/>
  <rect x="228" y="390" width="290" height="30" rx="15" fill="#D6E4F0"/>
  <rect x="228" y="466" width="192" height="30" rx="15" fill="#D6E4F0"/>
  <path d="M714 304H944" stroke="#72D6C9" stroke-width="22" stroke-linecap="round"/>
  <path d="M714 386H890" stroke="#72D6C9" stroke-width="22" stroke-linecap="round"/>
  <path d="M714 468H944" stroke="#72D6C9" stroke-width="22" stroke-linecap="round"/>
  <path d="M714 550H842" stroke="#72D6C9" stroke-width="22" stroke-linecap="round"/>
  <circle cx="898" cy="610" r="62" fill="#FF6B2C"/>
  <path d="M872 610L890 628L928 586" stroke="#FFF9F0" stroke-width="18" stroke-linecap="round" stroke-linejoin="round"/>
  <text x="222" y="656" fill="#102542" font-family="Arial, sans-serif" font-size="28" font-weight="700">Messy source data</text>
  <text x="696" y="244" fill="#FFF6EA" font-family="Arial, sans-serif" font-size="28" font-weight="700">Validated addresses</text>
</svg>
